# Blender 3.3.1
# www.blender.org
mtllib Bishop.mtl
o LP_Bishop
v 0.016431 -0.000002 -8.070612
v 0.079420 -0.000002 -7.918542
v 0.016431 -0.000002 -7.766472
v -0.028110 0.107528 -8.070612
v 0.016431 0.152068 -7.918542
v -0.028110 0.107528 -7.766472
v -0.135639 0.152068 -8.070612
v -0.135639 0.215058 -7.918542
v -0.135639 0.152068 -7.766472
v -0.243169 0.107528 -8.070612
v -0.287709 0.152068 -7.918542
v -0.243169 0.107528 -7.766472
v -0.287709 -0.000002 -8.070612
v -0.350699 -0.000002 -7.918542
v -0.287709 -0.000002 -7.766472
v -0.243169 -0.107532 -8.070612
v -0.287709 -0.152072 -7.918542
v -0.243169 -0.107532 -7.766472
v -0.135639 -0.000001 -7.703483
v -0.135639 -0.152072 -8.070612
v -0.135639 -0.215061 -7.918542
v -0.135639 -0.152072 -7.766472
v -0.135639 -0.000002 -8.133601
v -0.028110 -0.107532 -8.070612
v 0.016431 -0.152072 -7.918542
v -0.028110 -0.107532 -7.766472
v 0.595360 -0.000001 -7.036345
v 0.436645 -0.000001 -7.191462
v 0.441408 0.371672 -7.036345
v 0.888253 -0.000001 -6.310156
v 0.447769 0.558041 -6.829175
v 0.595360 0.707106 -6.310156
v 0.441408 -0.371674 -7.036345
v 0.780702 -0.000001 -5.456754
v 0.519310 0.631056 -5.456754
v 0.595359 -0.707108 -6.310156
v 0.447661 -0.559409 -6.828039
v 0.407386 0.747220 -6.403745
v 0.382767 0.795164 -6.310156
v 0.320048 0.432629 -5.194570
v 0.498905 -0.000001 -5.194570
v 0.519309 -0.631058 -5.456754
v 0.319942 0.791088 -6.071320
v 0.200557 0.817609 -5.889377
v 0.069874 0.871740 -5.889377
v -0.049510 0.944120 -6.071319
v -0.111747 0.999717 -6.307919
v -0.111747 0.892448 -5.456754
v 0.382767 -0.795166 -6.310156
v 0.407386 -0.747222 -6.403746
v -0.111747 0.611829 -5.194570
v 0.358849 0.471504 -5.018384
v 0.553777 -0.000001 -5.018384
v 0.320049 -0.432630 -5.194570
v -0.111747 -0.892450 -5.456754
v -0.111747 -0.999719 -6.307919
v -0.049510 -0.944122 -6.071320
v 0.069874 -0.871742 -5.889377
v 0.200557 -0.817611 -5.889377
v 0.319942 -0.791090 -6.071320
v -0.818854 0.707106 -6.310156
v -0.742804 0.631056 -5.456754
v -0.543543 0.432628 -5.194570
v -0.111747 0.666807 -5.018384
v 0.554305 0.667338 -4.812354
v 0.830195 0.000000 -4.812354
v 0.358850 -0.471506 -5.018384
v -0.111747 -0.611831 -5.194570
v -0.742804 -0.631058 -5.456754
v -0.818854 -0.707108 -6.310156
v -0.170976 0.682572 -7.036345
v -0.611747 0.499999 -7.036345
v -0.136954 0.951811 -6.403745
v -0.177337 0.763496 -6.829175
v -1.111747 -0.000001 -6.310156
v -1.004196 -0.000001 -5.456754
v -0.722399 -0.000001 -5.194570
v -0.582344 0.471504 -5.018384
v -0.111747 0.943758 -4.812354
v 0.542877 0.655888 -4.605145
v 0.814033 0.000000 -4.605145
v 0.554307 -0.667339 -4.812354
v -0.111747 -0.666810 -5.018384
v -0.543543 -0.432630 -5.194570
v -0.611747 -0.500001 -7.036345
v -0.170976 -0.682574 -7.036345
v -0.177337 -0.763497 -6.829175
v -0.136954 -0.951813 -6.403745
v -0.111747 0.148864 -7.581928
v -0.111747 -0.000002 -7.727417
v -0.163677 0.442379 -7.274047
v -0.818854 -0.000001 -7.036345
v -0.777272 -0.000001 -5.018384
v -0.777801 0.667337 -4.812354
v -0.111747 0.927565 -4.605145
v 0.784383 0.897860 -4.372630
v 1.155574 0.000000 -4.372630
v 0.542879 -0.655889 -4.605145
v -0.111747 -0.943761 -4.812354
v -0.582344 -0.471506 -5.018384
v -0.111747 -0.148866 -7.581928
v -0.163677 -0.442381 -7.274047
v -0.086074 0.025672 -7.691934
v -0.098336 0.061952 -7.661440
v -1.053689 -0.000001 -4.812354
v -0.766373 0.655887 -4.605145
v -0.111747 1.269765 -4.372631
v 0.321263 0.433845 -4.078913
v 0.500622 -0.000001 -4.078913
v 0.784385 -0.897861 -4.372630
v -0.111747 -0.927567 -4.605145
v -0.777801 -0.667340 -4.812354
v -0.086074 -0.025674 -7.691934
v -0.098336 -0.061954 -7.661440
v -0.083074 -0.000001 -7.699395
v -1.037527 -0.000001 -4.605145
v -1.007879 0.897859 -4.372630
v -0.111747 0.613550 -4.078913
v 0.332462 0.445066 -3.326509
v 0.516460 -0.000001 -3.326509
v 0.321264 -0.433847 -4.078913
v -0.111747 -1.269768 -4.372630
v -0.766373 -0.655889 -4.605145
v -1.379068 -0.000001 -4.372630
v -0.544758 0.433845 -4.078913
v -0.111747 0.629418 -3.326509
v 0.385566 0.498273 -2.655068
v 0.591561 -0.000001 -2.655068
v 0.332463 -0.445067 -3.326509
v -0.111747 -0.613552 -4.078913
v -1.007879 -0.897861 -4.372630
v -0.724117 -0.000001 -4.078913
v -0.555957 0.445065 -3.326509
v -0.111747 0.704664 -2.655068
v 0.616232 0.729385 -1.983628
v 0.917772 0.000001 -1.983628
v 0.385567 -0.498273 -2.655068
v -0.111747 -0.629420 -3.326509
v -0.544758 -0.433847 -4.078913
v -0.739955 -0.000001 -3.326509
v -0.609061 0.498272 -2.655068
v -0.111747 1.031505 -1.983628
v 1.169921 0.000001 -1.870895
v 0.794528 0.908025 -1.870895
v 0.616233 -0.729384 -1.983628
v -0.111747 -0.704666 -2.655068
v -0.555957 -0.445068 -3.326509
v -0.815055 -0.000001 -2.655068
v -0.839727 0.729384 -1.983628
v -0.111747 1.284140 -1.870895
v 1.153206 0.000001 -1.781843
v 0.782709 0.896183 -1.781843
v 0.794529 -0.908024 -1.870895
v -0.111747 -1.031505 -1.983628
v -0.609061 -0.498273 -2.655068
v -1.141266 -0.000000 -1.983628
v -1.018023 0.908024 -1.870895
v -0.111747 1.267393 -1.781843
v 1.784926 0.000001 -1.265630
v 1.229402 1.343739 -1.265630
v 0.782710 -0.896182 -1.781843
v -0.111747 -1.284141 -1.870895
v -0.839727 -0.729385 -1.983628
v -1.393415 -0.000000 -1.870895
v -1.006204 0.896182 -1.781843
v -0.111747 1.900332 -1.265630
v 1.481892 0.000001 -0.789124
v 1.015124 1.129047 -0.789124
v 1.229405 -1.343738 -1.265630
v -0.111747 -1.267394 -1.781843
v -1.018023 -0.908025 -1.870895
v -1.376700 -0.000000 -1.781843
v -1.452898 1.343737 -1.265630
v -0.111747 1.596712 -0.789124
v 1.779126 0.000001 -0.581616
v 1.225300 1.339629 -0.581616
v 1.015126 -1.129046 -0.789124
v -0.111747 -1.900333 -1.265630
v -1.006204 -0.896183 -1.781843
v -2.008420 -0.000000 -1.265630
v -1.238620 1.129046 -0.789124
v -0.111747 1.894520 -0.581616
v 1.898693 0.000001 -0.174674
v 1.309847 1.424340 -0.174674
v 1.225303 -1.339628 -0.581616
v -0.111747 -1.596713 -0.789124
v -1.452898 -1.343739 -1.265630
v -1.705386 -0.000000 -0.789124
v -1.448796 1.339628 -0.581616
v -0.111747 2.014318 -0.174674
v -1.533343 1.424338 -0.174674
v -2.122188 -0.000000 -0.174674
v -1.533343 -1.424339 -0.174674
v -0.111746 -2.014319 -0.174674
v 1.309850 -1.424338 -0.174674
v -0.111747 -1.894521 -0.581616
v -1.238620 -1.129047 -0.789124
v -2.002620 -0.000000 -0.581616
v -1.448796 -1.339629 -0.581616
vn 0.3780 0.1566 -0.9125
vn 0.3780 0.1566 0.9125
vn 0.8629 0.3574 -0.3574
vn 0.8629 0.3574 0.3574
vn 0.1566 0.3780 0.9125
vn 0.3574 0.8629 -0.3574
vn 0.3574 0.8629 0.3574
vn 0.1566 0.3780 -0.9125
vn -0.1566 0.3780 0.9125
vn -0.3574 0.8629 -0.3574
vn -0.3574 0.8629 0.3574
vn -0.1566 0.3780 -0.9125
vn -0.3780 0.1566 -0.9125
vn -0.3780 0.1565 0.9125
vn -0.8629 0.3574 -0.3574
vn -0.8629 0.3574 0.3574
vn -0.8629 -0.3574 0.3574
vn -0.3780 -0.1565 -0.9125
vn -0.3780 -0.1565 0.9125
vn -0.8629 -0.3574 -0.3574
vn -0.3574 -0.8629 0.3574
vn -0.1566 -0.3780 -0.9125
vn -0.1566 -0.3780 0.9125
vn -0.3574 -0.8629 -0.3574
vn 0.3574 -0.8629 0.3574
vn 0.1566 -0.3780 -0.9125
vn 0.1566 -0.3780 0.9125
vn 0.3574 -0.8629 -0.3574
vn 0.8629 -0.3574 0.3574
vn 0.3780 -0.1566 -0.9125
vn 0.3780 -0.1566 0.9125
vn 0.8629 -0.3574 -0.3574
vn 0.6714 0.2781 -0.6870
vn 0.8657 0.3586 -0.3492
vn 0.6714 -0.2781 -0.6870
vn 0.9177 0.3801 0.1157
vn 0.8657 -0.3586 -0.3492
vn 0.3586 0.8657 -0.3492
vn 0.6556 0.2715 0.7046
vn 0.9177 -0.3801 0.1157
vn 0.3801 0.9177 0.1157
vn 0.3586 -0.8657 -0.3492
vn 0.2719 0.6565 0.7036
vn 0.8881 0.3671 -0.2766
vn 0.6556 -0.2715 0.7046
vn 0.3801 -0.9177 0.1157
vn -0.3801 0.9177 0.1157
vn -0.2719 0.6565 0.7036
vn 0.3683 0.8875 -0.2769
vn 0.5802 0.2399 -0.7784
vn 0.8881 -0.3672 -0.2766
vn 0.2719 -0.6565 0.7036
vn -0.3801 -0.9177 0.1157
vn -0.3586 0.8657 -0.3492
vn -0.9177 0.3801 0.1157
vn -0.6556 0.2715 0.7046
vn -0.3683 0.8875 -0.2769
vn 0.2404 0.5794 -0.7788
vn 0.9217 0.3811 0.0719
vn 0.5802 -0.2399 -0.7784
vn 0.3683 -0.8875 -0.2769
vn -0.2719 -0.6565 0.7036
vn -0.9177 -0.3801 0.1157
vn -0.3586 -0.8657 -0.3492
vn -0.2781 0.6714 -0.6870
vn -0.8657 0.3586 -0.3492
vn -0.6556 -0.2715 0.7046
vn -0.8881 0.3672 -0.2766
vn -0.2404 0.5794 -0.7788
vn 0.3823 0.9212 0.0720
vn 0.5481 0.2266 -0.8051
vn 0.9217 -0.3811 0.0719
vn 0.2404 -0.5794 -0.7788
vn -0.3683 -0.8875 -0.2769
vn -0.8657 -0.3586 -0.3492
vn -0.2781 -0.6714 -0.6870
vn 0.2781 0.6714 -0.6870
vn -0.6714 0.2781 -0.6870
vn -0.8881 -0.3671 -0.2766
vn -0.5802 0.2399 -0.7784
vn -0.3823 0.9212 0.0720
vn 0.2271 0.5473 -0.8055
vn 0.4035 0.1668 0.8997
vn 0.5481 -0.2266 -0.8051
vn 0.3823 -0.9212 0.0720
vn -0.2404 -0.5794 -0.7788
vn -0.6714 -0.2781 -0.6870
vn 0.2781 -0.6714 -0.6870
vn -0.5802 -0.2399 -0.7784
vn -0.9217 0.3811 0.0719
vn -0.2271 0.5473 -0.8055
vn 0.1672 0.4028 0.8999
vn 0.9240 0.3820 -0.0194
vn 0.4035 -0.1668 0.8997
vn 0.2271 -0.5473 -0.8055
vn -0.3823 -0.9212 0.0720
vn -0.9217 -0.3811 0.0719
vn -0.5481 0.2266 -0.8051
vn -0.1672 0.4028 0.8999
vn 0.3832 0.9234 -0.0195
vn 0.9192 0.3800 -0.1028
vn 0.9240 -0.3820 -0.0194
vn 0.1672 -0.4028 0.8999
vn -0.2271 -0.5473 -0.8055
vn -0.5481 -0.2266 -0.8051
vn -0.4035 0.1668 0.8997
vn -0.3832 0.9234 -0.0195
vn 0.3813 0.9187 -0.1030
vn 0.8431 0.3485 -0.4096
vn 0.9192 -0.3800 -0.1028
vn 0.3832 -0.9234 -0.0195
vn -0.1672 -0.4028 0.8999
vn -0.4035 -0.1668 0.8997
vn -0.9240 0.3820 -0.0194
vn -0.3813 0.9187 -0.1030
vn 0.3496 0.8424 -0.4101
vn 0.4025 0.1664 -0.9002
vn 0.8431 -0.3485 -0.4096
vn 0.3813 -0.9187 -0.1030
vn -0.3832 -0.9234 -0.0195
vn -0.9240 -0.3820 -0.0194
vn -0.9192 0.3800 -0.1028
vn -0.3496 0.8424 -0.4101
vn 0.1667 0.4018 -0.9004
vn 0.9105 0.3764 0.1709
vn 0.4025 -0.1664 -0.9002
vn 0.3496 -0.8424 -0.4101
vn -0.3813 -0.9187 -0.1030
vn -0.9192 -0.3800 -0.1028
vn -0.8431 0.3485 -0.4096
vn -0.1667 0.4018 -0.9004
vn 0.3777 0.9100 0.1711
vn 0.6122 0.2531 -0.7491
vn 0.9105 -0.3764 0.1709
vn 0.1667 -0.4018 -0.9004
vn -0.3496 -0.8424 -0.4101
vn -0.8431 -0.3485 -0.4096
vn -0.4025 0.1664 -0.9002
vn -0.3777 0.9100 0.1711
vn 0.2537 0.6113 -0.7496
vn 0.7967 0.3294 0.5067
vn 0.6122 -0.2531 -0.7491
vn 0.3777 -0.9100 0.1711
vn -0.1667 -0.4018 -0.9004
vn -0.4025 -0.1664 -0.9002
vn -0.9105 0.3764 0.1709
vn -0.2537 0.6113 -0.7496
vn 0.3304 0.7960 0.5072
vn 0.5570 0.2303 -0.7979
vn 0.7967 -0.3294 0.5067
vn 0.2537 -0.6113 -0.7496
vn -0.3777 -0.9100 0.1711
vn -0.9105 -0.3764 0.1709
vn -0.6122 0.2531 -0.7491
vn -0.3304 0.7960 0.5072
vn 0.2309 0.5562 -0.7983
vn 0.8918 0.3687 -0.2620
vn 0.5570 -0.2303 -0.7979
vn 0.3304 -0.7960 0.5072
vn -0.2537 -0.6113 -0.7496
vn -0.6122 -0.2531 -0.7491
vn -0.7967 0.3294 0.5067
vn -0.2309 0.5562 -0.7983
vn 0.3699 0.8913 -0.2624
vn -0.0000 -0.0000 1.0000
vn 0.8918 -0.3687 -0.2620
vn 0.2309 -0.5562 -0.7983
vn -0.3304 -0.7960 0.5072
vn -0.7967 -0.3294 0.5067
vn -0.5570 0.2303 -0.7979
vn -0.3699 0.8913 -0.2624
vn -0.8918 0.3687 -0.2620
vn -0.8918 -0.3687 -0.2620
vn -0.3699 -0.8913 -0.2624
vn 0.3699 -0.8913 -0.2624
vn -0.2309 -0.5562 -0.7983
vn -0.5570 -0.2303 -0.7979
vn 0.9278 -0.0000 0.3731
vn 0.9861 -0.0000 0.1663
vn 0.9995 -0.0000 0.0307
vn 0.9955 -0.0000 -0.0945
vn 0.9671 -0.0000 -0.2544
vn 0.8361 -0.0000 -0.5486
vn -0.0000 -0.0000 -1.0000
vn -0.8361 -0.0000 -0.5486
vn -0.9671 -0.0000 -0.2544
vn -0.9955 -0.0000 -0.0945
vn -0.9995 -0.0000 0.0307
vn 0.3591 0.8650 -0.3505
vn 0.6562 0.2713 0.7041
vn 0.3801 0.9177 0.1156
vn 0.2726 0.6568 0.7030
vn 0.8881 0.3672 -0.2766
vn 0.6563 -0.2713 0.7041
vn 0.3801 -0.9177 0.1156
vn -0.2726 0.6568 0.7030
vn 0.8881 -0.3671 -0.2766
vn 0.2726 -0.6568 0.7030
vn -0.3586 0.8693 -0.3402
vn -0.6562 0.2713 0.7041
vn -0.2726 -0.6568 0.7030
vn -0.3586 -0.8693 -0.3402
vn -0.6562 -0.2713 0.7041
vn -0.8881 0.3671 -0.2766
vn -0.8881 -0.3672 -0.2766
vn -0.9995 0.0001 0.0301
s 0
f 1//1 23//1 4//1
f 19//2 3//2 6//2
f 1//3 5//3 2//3
f 2//4 6//4 3//4
f 19//5 6//5 9//5
f 4//6 8//6 5//6
f 5//7 9//7 6//7
f 4//8 23//8 7//8
f 19//9 9//9 12//9
f 8//10 10//10 11//10
f 8//11 12//11 9//11
f 7//12 23//12 10//12
f 10//13 23//13 13//13
f 19//14 12//14 15//14
f 10//15 14//15 11//15
f 11//16 15//16 12//16
f 14//17 18//17 15//17
f 13//18 23//18 16//18
f 19//19 15//19 18//19
f 13//20 17//20 14//20
f 18//21 21//21 22//21
f 16//22 23//22 20//22
f 19//23 18//23 22//23
f 16//24 21//24 17//24
f 21//25 26//25 22//25
f 20//26 23//26 24//26
f 19//27 22//27 26//27
f 20//28 25//28 21//28
f 25//29 3//29 26//29
f 24//30 23//30 1//30
f 19//31 26//31 3//31
f 24//32 2//32 25//32
f 27//33 28//33 29//33
f 27//34 29//34 31//34
f 28//35 27//35 33//35
f 30//36 35//36 34//36
f 37//37 27//37 30//37
f 32//38 38//38 39//38
f 35//39 41//39 34//39
f 36//40 34//40 42//40
f 44//41 45//41 48//41
f 36//42 50//42 37//42
f 48//43 40//43 35//43
f 53//44 40//44 52//44
f 41//45 42//45 34//45
f 59//46 60//46 42//46
f 47//47 62//47 48//47
f 63//48 48//48 62//48
f 52//49 51//49 64//49
f 66//50 52//50 65//50
f 53//51 54//51 41//51
f 54//52 55//52 42//52
f 56//53 69//53 70//53
f 73//54 74//54 61//54
f 61//55 76//55 62//55
f 77//56 62//56 76//56
f 78//57 51//57 63//57
f 65//58 64//58 79//58
f 80//59 66//59 65//59
f 66//60 67//60 53//60
f 67//61 68//61 54//61
f 55//62 84//62 69//62
f 75//63 69//63 76//63
f 85//64 86//64 87//64
f 72//65 71//65 91//65
f 72//66 75//66 61//66
f 69//67 77//67 76//67
f 93//68 63//68 77//68
f 94//69 64//69 78//69
f 95//70 65//70 79//70
f 97//71 80//71 96//71
f 98//72 66//72 81//72
f 82//73 83//73 67//73
f 100//74 68//74 83//74
f 92//75 70//75 75//75
f 85//76 101//76 102//76
f 90//77 104//77 103//77
f 72//78 90//78 92//78
f 93//79 84//79 100//79
f 105//80 78//80 93//80
f 95//81 94//81 106//81
f 96//82 95//82 107//82
f 108//83 97//83 96//83
f 97//84 98//84 81//84
f 111//85 82//85 98//85
f 112//86 83//86 99//86
f 92//87 90//87 85//87
f 90//88 114//88 101//88
f 115//33 90//33 103//33
f 105//89 100//89 112//89
f 106//90 105//90 116//90
f 117//91 95//91 106//91
f 118//92 96//92 107//92
f 120//93 108//93 119//93
f 121//94 97//94 109//94
f 110//95 111//95 98//95
f 111//96 112//96 99//96
f 113//35 90//35 115//35
f 123//97 105//97 112//97
f 124//98 106//98 116//98
f 118//99 117//99 125//99
f 119//100 118//100 126//100
f 128//101 119//101 127//101
f 120//102 121//102 109//102
f 130//103 110//103 121//103
f 131//104 111//104 122//104
f 124//105 123//105 131//105
f 125//106 124//106 132//106
f 133//107 118//107 125//107
f 127//108 126//108 134//108
f 136//109 127//109 135//109
f 128//110 129//110 120//110
f 129//111 130//111 121//111
f 130//112 131//112 122//112
f 139//113 124//113 131//113
f 140//114 125//114 132//114
f 141//115 126//115 133//115
f 135//116 134//116 142//116
f 143//117 135//117 144//117
f 136//118 137//118 128//118
f 137//119 138//119 129//119
f 147//120 130//120 138//120
f 140//121 139//121 147//121
f 148//122 133//122 140//122
f 149//123 134//123 141//123
f 144//124 142//124 150//124
f 143//125 152//125 151//125
f 145//126 143//126 153//126
f 145//127 146//127 137//127
f 155//128 138//128 146//128
f 148//129 147//129 155//129
f 156//130 141//130 148//130
f 142//131 157//131 150//131
f 144//132 158//132 152//132
f 159//133 152//133 160//133
f 161//134 143//134 151//134
f 154//135 153//135 162//135
f 163//136 146//136 154//136
f 156//137 155//137 163//137
f 149//138 164//138 157//138
f 158//139 157//139 165//139
f 160//140 158//140 166//140
f 159//141 168//141 167//141
f 161//142 159//142 169//142
f 170//143 153//143 161//143
f 171//144 154//144 162//144
f 164//145 163//145 171//145
f 165//146 164//146 172//146
f 158//147 173//147 166//147
f 160//148 174//148 168//148
f 175//149 168//149 176//149
f 177//150 159//150 167//150
f 170//151 169//151 178//151
f 171//152 170//152 179//152
f 164//153 179//153 172//153
f 165//154 180//154 173//154
f 174//155 173//155 181//155
f 176//156 174//156 182//156
f 183//157 176//157 184//157
f 177//158 175//158 185//158
f 186//159 169//159 177//159
f 187//160 170//160 178//160
f 180//161 179//161 187//161
f 181//162 180//162 188//162
f 174//163 189//163 182//163
f 184//164 182//164 190//164
f 193//165 194//165 195//165
f 185//166 183//166 195//166
f 186//167 185//167 196//167
f 187//168 186//168 197//168
f 180//169 197//169 188//169
f 181//170 198//170 189//170
f 182//171 191//171 190//171
f 189//172 192//172 191//172
f 192//173 199//173 193//173
f 193//174 196//174 194//174
f 196//175 195//175 194//175
f 199//176 186//176 196//176
f 198//177 197//177 199//177
f 113//178 103//178 104//178
f 101//179 114//179 89//179
f 87//180 86//180 102//180
f 74//181 88//181 87//181
f 57//182 56//182 88//182
f 46//183 58//183 57//183
f 44//184 58//184 45//184
f 43//185 59//185 44//185
f 50//186 49//186 60//186
f 31//187 50//187 38//187
f 29//188 28//188 33//188
f 1//3 4//3 5//3
f 2//4 5//4 6//4
f 4//6 7//6 8//6
f 5//7 8//7 9//7
f 8//10 7//10 10//10
f 8//11 11//11 12//11
f 10//15 13//15 14//15
f 11//16 14//16 15//16
f 14//17 17//17 18//17
f 13//20 16//20 17//20
f 18//21 17//21 21//21
f 16//24 20//24 21//24
f 21//25 25//25 26//25
f 20//28 24//28 25//28
f 25//29 2//29 3//29
f 24//32 1//32 2//32
f 32//34 30//34 31//34
f 30//34 27//34 31//34
f 30//36 32//36 35//36
f 30//37 36//37 37//37
f 37//37 33//37 27//37
f 32//189 31//189 38//189
f 35//190 40//190 41//190
f 36//40 30//40 34//40
f 48//41 35//41 44//41
f 35//41 32//41 43//41
f 44//41 35//41 43//41
f 32//191 39//191 43//191
f 46//41 47//41 48//41
f 45//41 46//41 48//41
f 36//42 49//42 50//42
f 48//192 51//192 40//192
f 53//193 41//193 40//193
f 41//194 54//194 42//194
f 55//46 56//46 57//46
f 55//46 57//46 58//46
f 36//46 42//46 60//46
f 42//46 55//46 59//46
f 60//195 49//195 36//195
f 55//46 58//46 59//46
f 47//47 61//47 62//47
f 63//196 51//196 48//196
f 52//49 40//49 51//49
f 66//50 53//50 52//50
f 53//197 67//197 54//197
f 54//198 68//198 55//198
f 56//53 55//53 69//53
f 74//54 71//54 72//54
f 72//54 61//54 74//54
f 61//199 47//199 73//199
f 61//55 75//55 76//55
f 77//200 63//200 62//200
f 78//57 64//57 51//57
f 65//58 52//58 64//58
f 80//59 81//59 66//59
f 66//60 82//60 67//60
f 67//61 83//61 68//61
f 55//201 68//201 84//201
f 75//63 70//63 69//63
f 56//202 70//202 88//202
f 70//64 85//64 87//64
f 88//64 70//64 87//64
f 91//65 89//65 72//65
f 89//65 90//65 72//65
f 72//66 92//66 75//66
f 69//203 84//203 77//203
f 93//204 78//204 63//204
f 94//69 79//69 64//69
f 95//70 80//70 65//70
f 97//71 81//71 80//71
f 98//72 82//72 66//72
f 82//73 99//73 83//73
f 100//74 84//74 68//74
f 92//75 85//75 70//75
f 85//76 90//76 101//76
f 102//76 86//76 85//76
f 90//77 89//77 104//77
f 93//205 77//205 84//205
f 105//80 94//80 78//80
f 95//81 79//81 94//81
f 96//82 80//82 95//82
f 108//83 109//83 97//83
f 97//84 110//84 98//84
f 111//85 99//85 82//85
f 112//86 100//86 83//86
f 90//88 113//88 114//88
f 105//89 93//89 100//89
f 106//90 94//90 105//90
f 117//91 107//91 95//91
f 118//92 108//92 96//92
f 120//93 109//93 108//93
f 121//94 110//94 97//94
f 110//95 122//95 111//95
f 111//96 123//96 112//96
f 123//97 116//97 105//97
f 124//98 117//98 106//98
f 118//99 107//99 117//99
f 119//100 108//100 118//100
f 128//101 120//101 119//101
f 120//102 129//102 121//102
f 130//103 122//103 110//103
f 131//104 123//104 111//104
f 124//105 116//105 123//105
f 125//106 117//106 124//106
f 133//107 126//107 118//107
f 127//108 119//108 126//108
f 136//109 128//109 127//109
f 128//110 137//110 129//110
f 129//111 138//111 130//111
f 130//112 139//112 131//112
f 139//113 132//113 124//113
f 140//114 133//114 125//114
f 141//115 134//115 126//115
f 135//116 127//116 134//116
f 143//117 136//117 135//117
f 136//118 145//118 137//118
f 137//119 146//119 138//119
f 147//120 139//120 130//120
f 140//121 132//121 139//121
f 148//122 141//122 133//122
f 149//123 142//123 134//123
f 144//124 135//124 142//124
f 143//125 144//125 152//125
f 145//126 136//126 143//126
f 145//127 154//127 146//127
f 155//128 147//128 138//128
f 148//129 140//129 147//129
f 156//130 149//130 141//130
f 142//131 149//131 157//131
f 144//132 150//132 158//132
f 159//133 151//133 152//133
f 161//134 153//134 143//134
f 154//135 145//135 153//135
f 163//136 155//136 146//136
f 156//137 148//137 155//137
f 149//138 156//138 164//138
f 158//139 150//139 157//139
f 160//140 152//140 158//140
f 159//141 160//141 168//141
f 161//142 151//142 159//142
f 170//143 162//143 153//143
f 171//144 163//144 154//144
f 164//145 156//145 163//145
f 165//146 157//146 164//146
f 158//147 165//147 173//147
f 160//148 166//148 174//148
f 175//149 167//149 168//149
f 177//150 169//150 159//150
f 170//151 161//151 169//151
f 171//152 162//152 170//152
f 164//153 171//153 179//153
f 165//154 172//154 180//154
f 174//155 166//155 173//155
f 176//156 168//156 174//156
f 183//157 175//157 176//157
f 177//158 167//158 175//158
f 186//159 178//159 169//159
f 187//160 179//160 170//160
f 180//161 172//161 179//161
f 181//162 173//162 180//162
f 174//163 181//163 189//163
f 184//164 176//164 182//164
f 195//165 183//165 192//165
f 183//165 184//165 191//165
f 184//165 190//165 191//165
f 191//165 192//165 183//165
f 192//165 193//165 195//165
f 185//166 175//166 183//166
f 186//167 177//167 185//167
f 187//168 178//168 186//168
f 180//169 187//169 197//169
f 181//170 188//170 198//170
f 182//171 189//171 191//171
f 189//172 198//172 192//172
f 192//173 198//173 199//173
f 193//174 199//174 196//174
f 196//175 185//175 195//175
f 199//176 197//176 186//176
f 198//177 188//177 197//177
f 104//178 114//178 113//178
f 113//178 115//178 103//178
f 114//179 104//179 89//179
f 89//179 91//179 102//179
f 102//179 101//179 89//179
f 102//180 91//180 74//180
f 91//180 71//180 74//180
f 74//180 87//180 102//180
f 74//181 73//181 88//181
f 88//182 73//182 57//182
f 73//182 47//182 46//182
f 57//182 73//182 46//182
f 46//183 45//183 58//183
f 44//184 59//184 58//184
f 43//185 60//185 59//185
f 60//186 43//186 38//186
f 43//186 39//186 38//186
f 38//186 50//186 60//186
f 31//187 37//187 50//187
f 37//206 31//206 33//206
f 31//188 29//188 33//188
