# Blender 3.3.1
# www.blender.org
mtllib Rook.mtl
o Cube.001
v -0.707107 0.707107 -3.383549
v -0.707107 0.707107 0.000000
v -0.382683 0.923880 -3.383549
v -0.382683 0.923880 0.000000
v 0.000000 1.000000 -2.821808
v 0.000000 1.000000 0.000000
v -0.923880 0.382683 0.000000
v -0.923880 0.382683 -2.821808
v -1.000000 0.000000 0.000000
v -1.000000 0.000000 -2.821808
v -0.923880 -0.382683 0.000000
v -0.923880 -0.382683 -3.383549
v -0.707107 -0.707107 0.000000
v -0.707107 -0.707107 -3.383549
v -0.382683 -0.923880 0.000000
v -0.382683 -0.923880 -2.821808
v 0.000000 -1.000000 0.000000
v 0.000000 -1.000000 -2.821808
v 0.382683 -0.923880 0.000000
v 0.382683 -0.923880 -3.383549
v 0.707107 -0.707107 0.000000
v 0.707107 -0.707107 -3.383549
v 0.923880 -0.382683 0.000000
v 0.923880 -0.382683 -2.821808
v 1.000000 0.000000 0.000000
v 1.000000 0.000000 -2.821808
v 0.923880 0.382683 0.000000
v 0.923880 0.382683 -3.383549
v 0.707107 0.707107 0.000000
v 0.707107 0.707107 -3.383549
v 0.382683 0.923880 0.000000
v 0.382683 0.923880 -2.821808
v 0.229402 0.153281 -2.971808
v 0.153281 -0.229402 -2.971808
v -0.229402 -0.153281 -2.971808
v -0.153281 0.229402 -2.971808
vn -0.5556 0.8315 -0.0000
vn -0.1951 0.9808 -0.0000
vn -0.8315 0.5556 -0.0000
vn -0.9808 0.1951 -0.0000
vn -0.9808 -0.1951 -0.0000
vn -0.8315 -0.5556 -0.0000
vn -0.5556 -0.8315 -0.0000
vn -0.1951 -0.9808 -0.0000
vn 0.1951 -0.9808 -0.0000
vn 0.5556 -0.8315 -0.0000
vn 0.8315 -0.5556 -0.0000
vn 0.9808 -0.1951 -0.0000
vn 0.9808 0.1951 -0.0000
vn 0.8315 0.5556 -0.0000
vn -0.0000 -0.0000 1.0000
vn 0.5556 0.8315 -0.0000
vn 0.1951 0.9808 -0.0000
vn -0.2802 0.4194 -0.8635
vn 0.1839 -0.0366 -0.9823
vn -0.4194 -0.2802 -0.8635
vn -0.0000 -0.0000 -1.0000
vn 0.0366 0.1839 -0.9823
vn -0.0366 -0.1839 -0.9823
vn -0.1839 0.0366 -0.9823
vn 0.4194 0.2802 -0.8635
vn 0.8287 -0.0564 -0.5569
vn -0.8287 0.0564 -0.5569
vn 0.2650 0.7872 -0.5569
vn -0.0564 -0.8287 -0.5569
vn -0.7872 0.2650 -0.5569
vn 0.0564 0.8287 -0.5569
vn 0.7872 -0.2650 -0.5569
vn -0.2650 -0.7872 -0.5569
vn 0.2802 -0.4194 -0.8635
vt 0.937500 1.000000
vt 0.875000 1.000000
vt 0.419706 0.419706
vt 0.937500 0.500000
vt 0.875000 0.500000
vt 0.919706 0.419706
vt 1.000000 1.000000
vt 0.875000 1.000000
vt 0.341844 0.471731
vt 1.000000 0.500000
vt 0.875000 0.500000
vt 0.841844 0.471731
vt 0.937500 1.000000
vt 0.000000 1.000000
vt 0.250000 0.490000
vt 0.937500 0.500000
vt 0.750000 0.490000
vt 0.000000 0.500000
vt 0.812500 0.500000
vt 0.971731 0.341844
vt 0.812500 1.000000
vt 0.471731 0.341844
vt 0.750000 0.500000
vt 0.990000 0.250000
vt 0.750000 1.000000
vt 0.490000 0.250000
vt 0.687500 0.500000
vt 0.971731 0.158156
vt 0.687500 1.000000
vt 0.471731 0.158156
vt 0.625000 0.500000
vt 0.919706 0.080294
vt 0.625000 1.000000
vt 0.419706 0.080294
vt 0.562500 0.500000
vt 0.841844 0.028269
vt 0.562500 1.000000
vt 0.341844 0.028269
vt 0.500000 0.500000
vt 0.750000 0.010000
vt 0.500000 1.000000
vt 0.250000 0.010000
vt 0.437500 0.500000
vt 0.658156 0.028269
vt 0.437500 1.000000
vt 0.158156 0.028269
vt 0.375000 0.500000
vt 0.580294 0.080294
vt 0.375000 1.000000
vt 0.080294 0.080294
vt 0.312500 0.500000
vt 0.528269 0.158156
vt 0.312500 1.000000
vt 0.028269 0.158156
vt 0.250000 0.500000
vt 0.510000 0.250000
vt 0.250000 1.000000
vt 0.010000 0.250000
vt 0.187500 0.500000
vt 0.528269 0.341844
vt 0.187500 1.000000
vt 0.028269 0.341844
vt 0.580294 0.419706
vt 0.125000 0.500000
vt 0.125000 1.000000
vt 0.080294 0.419706
vt 0.062500 0.500000
vt 0.658156 0.471731
vt 0.062500 1.000000
vt 0.158156 0.471731
vt 0.194944 0.286788
vt 0.213212 0.194944
vt 0.305057 0.213212
vt 0.286788 0.305056
s 0
f 3/7/1 2/4/1 4/10/1
f 5/13/2 4/11/2 6/16/2
f 2/5/3 8/21/3 7/19/3
f 8/21/4 9/23/4 7/19/4
f 10/25/5 11/27/5 9/23/5
f 12/29/6 13/31/6 11/27/6
f 13/31/7 16/37/7 15/35/7
f 16/37/8 17/39/8 15/35/8
f 18/41/9 19/43/9 17/39/9
f 20/45/10 21/47/10 19/43/10
f 21/47/11 24/53/11 23/51/11
f 24/53/12 25/55/12 23/51/12
f 26/57/13 27/59/13 25/55/13
f 28/61/14 29/64/14 27/59/14
f 15/36/15 23/52/15 31/68/15
f 29/64/16 32/69/16 31/67/16
f 32/69/17 6/18/17 31/67/17
f 20/46/18 34/72/18 22/50/18
f 33/71/19 24/54/19 34/72/19
f 28/62/20 33/71/20 30/66/20
f 33/71/21 35/73/21 36/74/21
f 36/74/22 32/70/22 33/71/22
f 34/72/23 16/38/23 35/73/23
f 8/22/24 35/73/24 10/26/24
f 35/73/25 14/34/25 12/30/25
f 3/9/26 5/15/26 36/74/26
f 3/7/1 1/1/1 2/4/1
f 5/13/2 3/8/2 4/11/2
f 2/5/3 1/2/3 8/21/3
f 8/21/4 10/25/4 9/23/4
f 10/25/5 12/29/5 11/27/5
f 12/29/6 14/33/6 13/31/6
f 13/31/7 14/33/7 16/37/7
f 16/37/8 18/41/8 17/39/8
f 18/41/9 20/45/9 19/43/9
f 20/45/10 22/49/10 21/47/10
f 21/47/11 22/49/11 24/53/11
f 24/53/12 26/57/12 25/55/12
f 26/57/13 28/61/13 27/59/13
f 28/61/14 30/65/14 29/64/14
f 31/68/15 6/17/15 4/12/15
f 4/12/15 2/6/15 31/68/15
f 2/6/15 7/20/15 31/68/15
f 7/20/15 9/24/15 11/28/15
f 11/28/15 13/32/15 7/20/15
f 13/32/15 15/36/15 7/20/15
f 15/36/15 17/40/15 19/44/15
f 19/44/15 21/48/15 15/36/15
f 21/48/15 23/52/15 15/36/15
f 23/52/15 25/56/15 27/60/15
f 27/60/15 29/63/15 23/52/15
f 29/63/15 31/68/15 23/52/15
f 31/68/15 7/20/15 15/36/15
f 29/64/16 30/65/16 32/69/16
f 32/69/17 5/14/17 6/18/17
f 18/42/27 34/72/27 20/46/27
f 34/72/28 24/54/28 22/50/28
f 33/71/19 26/58/19 24/54/19
f 26/58/29 33/71/29 28/62/29
f 33/71/30 32/70/30 30/66/30
f 33/71/21 34/72/21 35/73/21
f 36/74/22 5/15/22 32/70/22
f 34/72/23 18/42/23 16/38/23
f 8/22/24 36/74/24 35/73/24
f 12/30/31 10/26/31 35/73/31
f 35/73/32 16/38/32 14/34/32
f 8/22/33 1/3/33 36/74/33
f 1/3/34 3/9/34 36/74/34
